<svg 
     id="Capa_1" 
     enable-background="new 0 0 512 512" height="512" 
     viewBox="0 0 512 512" 
     width="512" 
     xmlns="http://www.w3.org/2000/svg"
>
  <g>
    <path d="m222.208 374.001 44.772-59.417c3.864-5.129 4.036-12.148.426-17.459l-55.878-82.216 28.762-79.272c2.37-6.533-.057-13.838-5.865-17.653-24.729-16.244-53.182-24.831-82.281-24.831-83.893-.001-152.144 68.25-152.144 152.142 0 117.172 129.072 215.221 206.011 263.237 2.428 1.515 5.184 2.274 7.941 2.274 2.639 0 5.28-.695 7.637-2.09 4.82-2.852 7.65-8.15 7.34-13.742zm-27.261-13.673c-2.132 2.83-3.194 6.322-2.998 9.859l5.385 96.916c-30.406-20.61-66.622-48.353-97.688-81.04-46.214-48.625-69.646-95.986-69.646-140.768 0-67.35 54.793-122.143 122.143-122.143 19.373 0 38.419 4.788 55.708 13.932l-27.14 74.8c-1.642 4.526-1.012 9.565 1.695 13.548l54.151 79.675z"/><path d="m359.857 93.152c-15.828 0-31.599 2.561-46.875 7.61-3.592 1.188-6.603 3.689-8.429 7.003l-50.691 91.995c-2.635 4.782-2.463 10.619.449 15.238l55.192 87.552-55.521 96.998c-2.1 3.668-2.554 8.051-1.252 12.071l29.14 90c1.42 4.388 4.779 7.877 9.109 9.464 1.674.613 3.421.916 5.161.916 2.76 0 5.503-.762 7.907-2.253 35.282-21.881 86.279-57.299 128.86-101.769 52.482-54.807 79.093-109.542 79.093-162.682 0-83.892-68.251-152.143-152.143-152.143zm51.381 294.078c-34.328 35.85-74.702 65.676-106.802 86.695l-21.122-65.233 56.704-99.063c2.756-4.814 2.629-10.757-.329-15.45l-55.28-87.691 43.484-78.916c10.496-2.935 21.223-4.419 31.964-4.419 67.35 0 122.143 54.793 122.143 122.143 0 45.145-23.808 92.899-70.762 141.934z"/><path d="m256 70c8.284 0 15-6.716 15-15v-40c0-8.284-6.716-15-15-15-8.284 0-15 6.716-15 15v40c0 8.284 6.716 15 15 15z"/><path d="m308.5 67.99c7.174 4.142 16.348 1.684 20.49-5.49l20-34.641c4.142-7.174 1.684-16.348-5.49-20.49s-16.348-1.684-20.49 5.49l-20 34.641c-4.142 7.174-1.684 16.348 5.49 20.49z"/><path d="m183.01 62.5c4.142 7.174 13.316 9.632 20.49 5.49s9.632-13.316 5.49-20.49l-20-34.641c-4.142-7.174-13.316-9.632-20.49-5.49s-9.632 13.316-5.49 20.49z"/>
  </g>
</svg>